<svg width="186" height="40" viewBox="0 0 186 40" fill="none" xmlns="http://www.w3.org/2000/svg">
<path d="M183.479 19.1844L179.087 19.4546C179.012 19.0793 178.851 18.7415 178.603 18.4412C178.355 18.1334 178.029 17.8894 177.623 17.7093C177.226 17.5216 176.749 17.4278 176.193 17.4278C175.45 17.4278 174.823 17.5854 174.313 17.9007C173.802 18.2085 173.547 18.6214 173.547 19.1393C173.547 19.5522 173.712 19.9013 174.043 20.1866C174.373 20.4718 174.94 20.7008 175.743 20.8735L178.873 21.5041C180.555 21.8494 181.809 22.4049 182.634 23.1706C183.46 23.9363 183.873 24.9423 183.873 26.1884C183.873 27.322 183.539 28.3166 182.871 29.1724C182.21 30.0282 181.302 30.6964 180.146 31.1768C178.997 31.6497 177.672 31.8862 176.171 31.8862C173.881 31.8862 172.057 31.4095 170.698 30.4561C169.347 29.4952 168.555 28.189 168.322 26.5375L173.04 26.2898C173.183 26.9879 173.528 27.5209 174.076 27.8887C174.624 28.2491 175.326 28.4293 176.182 28.4293C177.023 28.4293 177.699 28.2678 178.209 27.945C178.727 27.6147 178.99 27.1906 178.997 26.6726C178.99 26.2372 178.806 25.8806 178.445 25.6029C178.085 25.3176 177.53 25.0999 176.779 24.9498L173.784 24.353C172.095 24.0151 170.837 23.4296 170.011 22.5963C169.193 21.763 168.784 20.7008 168.784 19.4096C168.784 18.2986 169.084 17.3414 169.685 16.5382C170.293 15.7349 171.145 15.1156 172.241 14.6802C173.344 14.2448 174.636 14.0271 176.115 14.0271C178.299 14.0271 180.018 14.4888 181.272 15.4121C182.533 16.3355 183.269 17.5929 183.479 19.1844Z" fill="white"/>
<path d="M165.673 19.1844L161.282 19.4546C161.207 19.0793 161.045 18.7415 160.797 18.4412C160.55 18.1334 160.223 17.8894 159.818 17.7093C159.42 17.5216 158.943 17.4278 158.388 17.4278C157.644 17.4278 157.018 17.5854 156.507 17.9007C155.997 18.2085 155.741 18.6214 155.741 19.1393C155.741 19.5522 155.907 19.9013 156.237 20.1866C156.567 20.4718 157.134 20.7008 157.937 20.8735L161.068 21.5041C162.749 21.8494 164.003 22.4049 164.829 23.1706C165.654 23.9363 166.067 24.9423 166.067 26.1884C166.067 27.322 165.733 28.3166 165.065 29.1724C164.405 30.0282 163.496 30.6964 162.34 31.1768C161.192 31.6497 159.867 31.8862 158.365 31.8862C156.076 31.8862 154.251 31.4095 152.893 30.4561C151.541 29.4952 150.749 28.189 150.517 26.5375L155.235 26.2898C155.377 26.9879 155.723 27.5209 156.271 27.8887C156.819 28.2491 157.521 28.4293 158.376 28.4293C159.217 28.4293 159.893 28.2678 160.403 27.945C160.921 27.6147 161.184 27.1906 161.192 26.6726C161.184 26.2372 161 25.8806 160.64 25.6029C160.279 25.3176 159.724 25.0999 158.973 24.9498L155.978 24.353C154.289 24.0151 153.031 23.4296 152.206 22.5963C151.387 21.763 150.978 20.7008 150.978 19.4096C150.978 18.2986 151.279 17.3414 151.879 16.5382C152.487 15.7349 153.339 15.1156 154.435 14.6802C155.539 14.2448 156.83 14.0271 158.309 14.0271C160.493 14.0271 162.212 14.4888 163.466 15.4121C164.727 16.3355 165.463 17.5929 165.673 19.1844Z" fill="white"/>
<path d="M140.213 31.8862C138.434 31.8862 136.903 31.5259 135.619 30.8052C134.343 30.077 133.359 29.0486 132.669 27.7198C131.978 26.3836 131.633 24.8034 131.633 22.9792C131.633 21.2 131.978 19.6386 132.669 18.2948C133.359 16.9511 134.332 15.9038 135.585 15.1531C136.846 14.4024 138.325 14.0271 140.022 14.0271C141.163 14.0271 142.225 14.211 143.209 14.5789C144.2 14.9392 145.063 15.4834 145.798 16.2116C146.542 16.9398 147.12 17.8557 147.533 18.9592C147.945 20.0552 148.152 21.3389 148.152 22.8103V24.1277H133.547V21.155H143.636C143.636 20.4643 143.486 19.8525 143.186 19.3195C142.886 18.7865 142.469 18.3699 141.936 18.0696C141.411 17.7618 140.799 17.6079 140.101 17.6079C139.373 17.6079 138.727 17.7768 138.164 18.1146C137.608 18.445 137.173 18.8916 136.858 19.4546C136.542 20.0102 136.381 20.6295 136.373 21.3126V24.139C136.373 24.9948 136.531 25.7342 136.846 26.3573C137.169 26.9804 137.623 27.4608 138.209 27.7987C138.794 28.1365 139.489 28.3054 140.292 28.3054C140.825 28.3054 141.313 28.2303 141.756 28.0802C142.199 27.93 142.578 27.7048 142.893 27.4045C143.209 27.1043 143.449 26.7364 143.614 26.301L148.051 26.5938C147.825 27.6598 147.364 28.5907 146.666 29.3864C145.975 30.1746 145.082 30.7902 143.986 31.2331C142.897 31.6685 141.64 31.8862 140.213 31.8862Z" fill="white"/>
<path d="M117.402 21.5491V31.5484H112.605V14.2523H117.177V17.3039H117.38C117.763 16.298 118.405 15.5022 119.305 14.9167C120.206 14.3236 121.299 14.0271 122.582 14.0271C123.783 14.0271 124.831 14.2898 125.724 14.8153C126.617 15.3408 127.312 16.0915 127.807 17.0674C128.303 18.0358 128.55 19.1919 128.55 20.5357V31.5484H123.753V21.3914C123.761 20.333 123.491 19.5072 122.943 18.9141C122.395 18.3136 121.64 18.0133 120.679 18.0133C120.034 18.0133 119.463 18.1522 118.968 18.4299C118.48 18.7077 118.097 19.1131 117.819 19.6461C117.549 20.1716 117.41 20.8059 117.402 21.5491Z" fill="white"/>
<path d="M103.966 31.5484V14.2523H108.763V31.5484H103.966ZM106.376 12.0227C105.662 12.0227 105.051 11.7862 104.54 11.3133C104.037 10.8329 103.786 10.2586 103.786 9.59045C103.786 8.92984 104.037 8.36306 104.54 7.89012C105.051 7.40967 105.662 7.16945 106.376 7.16945C107.089 7.16945 107.697 7.40967 108.2 7.89012C108.71 8.36306 108.965 8.92984 108.965 9.59045C108.965 10.2586 108.71 10.8329 108.2 11.3133C107.697 11.7862 107.089 12.0227 106.376 12.0227Z" fill="white"/>
<path d="M100.551 19.1844L96.1593 19.4546C96.0842 19.0793 95.9228 18.7415 95.6751 18.4412C95.4274 18.1334 95.1008 17.8894 94.6954 17.7093C94.2976 17.5216 93.8209 17.4278 93.2654 17.4278C92.5222 17.4278 91.8953 17.5854 91.3849 17.9007C90.8744 18.2085 90.6191 18.6214 90.6191 19.1393C90.6191 19.5522 90.7843 19.9013 91.1146 20.1866C91.4449 20.4718 92.0117 20.7008 92.8149 20.8735L95.9454 21.5041C97.6269 21.8494 98.8806 22.4049 99.7064 23.1706C100.532 23.9363 100.945 24.9423 100.945 26.1884C100.945 27.322 100.611 28.3166 99.9428 29.1724C99.2822 30.0282 98.3739 30.6964 97.2178 31.1768C96.0692 31.6497 94.7442 31.8862 93.2428 31.8862C90.9532 31.8862 89.129 31.4095 87.7702 30.4561C86.419 29.4952 85.627 28.189 85.3943 26.5375L90.1124 26.2898C90.2551 26.9879 90.6004 27.5209 91.1484 27.8887C91.6964 28.2491 92.3983 28.4293 93.2541 28.4293C94.0949 28.4293 94.7705 28.2678 95.281 27.945C95.799 27.6147 96.0617 27.1906 96.0692 26.6726C96.0617 26.2372 95.8778 25.8806 95.5175 25.6029C95.1571 25.3176 94.6016 25.0999 93.8509 24.9498L90.8556 24.353C89.1665 24.0151 87.9091 23.4296 87.0834 22.5963C86.2651 21.763 85.856 20.7008 85.856 19.4096C85.856 18.2986 86.1562 17.3414 86.7568 16.5382C87.3649 15.7349 88.2169 15.1156 89.3129 14.6802C90.4165 14.2448 91.7077 14.0271 93.1865 14.0271C95.3711 14.0271 97.0902 14.4888 98.3438 15.4121C99.605 16.3355 100.341 17.5929 100.551 19.1844Z" fill="white"/>
<path d="M77.5261 24.184V14.2523H82.3231V31.5484H77.7176V28.4067H77.5374C77.147 29.4202 76.4977 30.2347 75.5893 30.8503C74.6885 31.4658 73.5887 31.7736 72.29 31.7736C71.1339 31.7736 70.1167 31.5109 69.2384 30.9854C68.3601 30.4599 67.6732 29.7129 67.1778 28.7445C66.6898 27.7761 66.4421 26.6163 66.4346 25.265V14.2523H71.2315V24.4093C71.239 25.4302 71.513 26.2372 72.0536 26.8303C72.5941 27.4233 73.3185 27.7198 74.2268 27.7198C74.8049 27.7198 75.3454 27.5885 75.8483 27.3257C76.3513 27.0555 76.7567 26.6576 77.0645 26.1321C77.3798 25.6066 77.5337 24.9573 77.5261 24.184Z" fill="white"/>
<path d="M46.3657 31.5484V8.48692H51.1627V17.1575H51.3091C51.5193 16.6921 51.8233 16.2191 52.2212 15.7387C52.6266 15.2507 53.152 14.8453 53.7976 14.5225C54.4508 14.1922 55.2615 14.0271 56.2299 14.0271C57.4911 14.0271 58.6547 14.3574 59.7207 15.018C60.7866 15.6711 61.6387 16.6583 62.2768 17.9795C62.9149 19.2932 63.2339 20.941 63.2339 22.9229C63.2339 24.8522 62.9224 26.4812 62.2993 27.8099C61.6837 29.1311 60.843 30.1333 59.777 30.8165C58.7185 31.4921 57.5324 31.8299 56.2186 31.8299C55.2878 31.8299 54.4958 31.676 53.8427 31.3682C53.1971 31.0604 52.6678 30.6738 52.255 30.2084C51.8421 29.7355 51.5268 29.2588 51.3091 28.7783H51.0951V31.5484H46.3657ZM51.0613 22.9003C51.0613 23.9288 51.204 24.8259 51.4892 25.5916C51.7745 26.3573 52.1874 26.9541 52.7279 27.382C53.2684 27.8024 53.9253 28.0126 54.6985 28.0126C55.4792 28.0126 56.1398 27.7987 56.6803 27.3708C57.2208 26.9354 57.63 26.3348 57.9077 25.5691C58.193 24.7959 58.3356 23.9063 58.3356 22.9003C58.3356 21.9019 58.1967 21.0236 57.919 20.2654C57.6412 19.5072 57.2321 18.9141 56.6916 18.4862C56.1511 18.0583 55.4867 17.8444 54.6985 17.8444C53.9178 17.8444 53.2571 18.0508 52.7166 18.4637C52.1836 18.8766 51.7745 19.4621 51.4892 20.2203C51.204 20.9786 51.0613 21.8719 51.0613 22.9003Z" fill="white"/>
<path fill-rule="evenodd" clip-rule="evenodd" d="M18.9737 14.6548L24.1627 19.8438L19.2219 24.7846L14.0329 19.5956L18.9737 14.6548ZM13.6535 9.33464L10.4002 6.08133C10.2146 5.89576 10.2146 5.59489 10.4002 5.40932L15.0483 0.761143C15.2339 0.57557 15.5348 0.57557 15.7204 0.761143L31.6109 16.6517C33.3739 18.4147 33.3739 21.273 31.6109 23.0359L24.5421 30.1048L27.7954 33.3581C27.981 33.5436 27.981 33.8445 27.7954 34.0301L23.1473 38.6782C22.9617 38.8638 22.6608 38.8638 22.4752 38.6782L6.58467 22.7877C4.82171 21.0247 4.82171 18.1664 6.58467 16.4034L13.6535 9.33464Z" fill="white"/>
</svg>
