<svg width="197" height="39" viewBox="0 0 197 39" fill="none" xmlns="http://www.w3.org/2000/svg">
<path d="M189.731 12.3315H194.35L188.259 29.0671C186.518 33.8869 183.673 35.9956 179.422 35.7613V31.7448C181.799 31.7782 183.004 30.7741 183.807 28.5315L176.945 12.3315H181.665L186.016 23.5778L189.731 12.3315Z" fill="white"/>
<path d="M169.166 11.8629C172.714 11.8629 175.492 14.3397 175.492 18.7914V29.0671H171.175V19.327C171.175 17.0509 169.802 15.8794 167.861 15.8794C165.752 15.8794 164.179 17.1179 164.179 20.0298V29.0671H159.861V12.3315H164.179V14.2059C165.183 12.6997 166.924 11.8629 169.166 11.8629Z" fill="white"/>
<path d="M151.628 12.3315H155.946V29.0671H151.628V27.0923C150.423 28.5985 148.616 29.5357 146.172 29.5357C141.721 29.5357 138.039 25.6865 138.039 20.6993C138.039 15.7121 141.721 11.8629 146.172 11.8629C148.616 11.8629 150.423 12.8001 151.628 14.3063V12.3315ZM146.976 25.4187C149.653 25.4187 151.628 23.5108 151.628 20.6993C151.628 17.8877 149.653 15.9798 146.976 15.9798C144.331 15.9798 142.357 17.8877 142.357 20.6993C142.357 23.5108 144.331 25.4187 146.976 25.4187Z" fill="white"/>
<path d="M127.697 11.8629C132.182 11.8629 135.864 15.7121 135.864 20.6993C135.864 25.6865 132.182 29.5357 127.697 29.5357C125.254 29.5357 123.48 28.6319 122.275 27.0923V35.7613H117.957V12.3315H122.275V14.3063C123.48 12.7666 125.254 11.8629 127.697 11.8629ZM126.894 25.4187C129.572 25.4187 131.546 23.5108 131.546 20.6993C131.546 17.8877 129.572 15.9798 126.894 15.9798C124.25 15.9798 122.275 17.8877 122.275 20.6993C122.275 23.5108 124.25 25.4187 126.894 25.4187Z" fill="white"/>
<path d="M107.964 11.8629C111.779 11.8629 114.29 14.574 114.29 18.7579V29.0671H109.972V19.0592C109.972 17.0844 108.968 15.8794 107.16 15.8794C105.252 15.8794 104.048 17.1513 104.048 19.6617V29.0671H99.7297V19.0592C99.7297 17.0844 98.7256 15.8794 96.9182 15.8794C95.0773 15.8794 93.7719 17.1513 93.7719 19.6617V29.0671H89.4541V12.3315H93.7719V14.1055C94.7091 12.6997 96.2822 11.8629 98.4244 11.8629C100.5 11.8629 102.039 12.7331 102.976 14.2728C104.014 12.7666 105.688 11.8629 107.964 11.8629Z" fill="white"/>
<path d="M77.5468 29.5357C72.6266 29.5357 68.7104 25.6865 68.7104 20.6993C68.7104 15.7121 72.6266 11.8629 77.5468 11.8629C82.4671 11.8629 86.4167 15.7121 86.4167 20.6993C86.4167 25.6865 82.4671 29.5357 77.5468 29.5357ZM77.5468 25.3183C80.1241 25.3183 82.0989 23.4104 82.0989 20.6993C82.0989 17.9881 80.1241 16.0803 77.5468 16.0803C75.003 16.0803 73.0282 17.9881 73.0282 20.6993C73.0282 23.4104 75.003 25.3183 77.5468 25.3183Z" fill="white"/>
<path d="M59.9941 29.5357C54.9065 29.5357 51.1577 25.6865 51.1577 20.6993C51.1577 15.7121 54.9065 11.8629 59.9941 11.8629C63.2743 11.8629 66.1193 13.6034 67.4916 16.1807L63.7763 18.3563C63.1069 16.984 61.6677 16.1137 59.9606 16.1137C57.3834 16.1137 55.4755 18.0216 55.4755 20.6993C55.4755 23.3435 57.3834 25.2513 59.9606 25.2513C61.7011 25.2513 63.1404 24.4146 63.8098 23.0423L67.5586 25.1844C66.1193 27.7952 63.2743 29.5357 59.9941 29.5357Z" fill="white"/>
<path fill-rule="evenodd" clip-rule="evenodd" d="M14.3092 3.06079C12.865 3.06079 11.6943 4.23151 11.6943 5.67566V13.8429H3.37634C1.93219 13.8429 0.761475 15.0136 0.761475 16.4578V35.7373C0.761475 37.1814 1.93219 38.3521 3.37634 38.3521H22.4268C23.8709 38.3521 25.0416 37.1814 25.0416 35.7373V27.57H33.3596C34.8037 27.57 35.9745 26.3993 35.9745 24.9551V5.67566C35.9745 4.23151 34.8037 3.06079 33.3596 3.06079H14.3092ZM25.0416 27.57V16.4578C25.0416 15.0136 23.8709 13.8429 22.4268 13.8429H11.6943V24.9551C11.6943 26.3993 12.865 27.57 14.3092 27.57H25.0416Z" fill="white"/>
</svg>
