<svg width="192" height="37" viewBox="0 0 192 37" fill="none" xmlns="http://www.w3.org/2000/svg">
<path d="M179.21 19.4908H186.186C186.122 17.937 185.108 16.415 182.698 16.415C180.51 16.415 179.305 18.0639 179.21 19.4908ZM186.598 23.5496L190.118 24.596C189.325 27.2913 186.852 29.5427 183.015 29.5427C178.734 29.5427 174.961 26.4669 174.961 21.2031C174.961 16.2247 178.639 12.9903 182.634 12.9903C187.454 12.9903 190.34 16.0662 190.34 21.0763C190.34 21.6787 190.276 22.3129 190.276 22.3764H179.115C179.21 24.4375 180.954 25.9278 183.047 25.9278C185.013 25.9278 186.091 24.9448 186.598 23.5496Z" fill="white"/>
<path d="M160.882 24.7229L164.497 23.9301C164.592 25.1668 165.512 26.3083 167.351 26.3083C168.746 26.3083 169.412 25.579 169.412 24.7546C169.412 24.057 168.936 23.4862 167.731 23.2325L165.67 22.7569C162.658 22.091 161.294 20.2835 161.294 18.0956C161.294 15.3051 163.768 12.9903 167.129 12.9903C171.568 12.9903 173.059 15.8125 173.249 17.4931L169.729 18.2858C169.602 17.3662 168.936 16.193 167.161 16.193C166.051 16.193 165.163 16.8589 165.163 17.7468C165.163 18.5078 165.734 18.9834 166.59 19.142L168.809 19.6176C171.885 20.2518 173.439 22.1227 173.439 24.4058C173.439 26.9425 171.473 29.5427 167.383 29.5427C162.69 29.5427 161.072 26.4986 160.882 24.7229Z" fill="white"/>
<path d="M158.333 29.0671H154.116V13.466H158.333V29.0671ZM153.608 8.36074C153.608 6.9021 154.781 5.72885 156.208 5.72885C157.667 5.72885 158.809 6.9021 158.809 8.36074C158.809 9.75596 157.667 10.9292 156.208 10.9292C154.781 10.9292 153.608 9.75596 153.608 8.36074Z" fill="white"/>
<path d="M151.783 13.4026V17.6516C151.307 17.5565 150.895 17.5248 150.515 17.5248C148.358 17.5248 146.488 18.5712 146.488 21.9324V29.0671H142.27V13.466H146.361V15.7808C147.312 13.7196 149.468 13.3391 150.8 13.3391C151.149 13.3391 151.466 13.3708 151.783 13.4026Z" fill="white"/>
<path d="M127.706 35.0919H123.489V13.466H127.579V15.3685C128.277 14.1636 130.021 13.1172 132.367 13.1172C136.933 13.1172 139.565 16.6052 139.565 21.2348C139.565 25.9595 136.616 29.4476 132.209 29.4476C130.052 29.4476 128.467 28.5914 127.706 27.545V35.0919ZM135.411 21.2665C135.411 18.5078 133.699 16.8906 131.543 16.8906C129.386 16.8906 127.642 18.5078 127.642 21.2665C127.642 24.0252 129.386 25.6741 131.543 25.6741C133.699 25.6741 135.411 24.057 135.411 21.2665Z" fill="white"/>
<path d="M121.156 13.4026V17.6516C120.681 17.5565 120.268 17.5248 119.888 17.5248C117.732 17.5248 115.861 18.5712 115.861 21.9324V29.0671H111.643V13.466H115.734V15.7808C116.685 13.7196 118.841 13.3391 120.173 13.3391C120.522 13.3391 120.839 13.3708 121.156 13.4026Z" fill="white"/>
<path d="M97.8265 19.4908H104.803C104.739 17.937 103.724 16.415 101.315 16.415C99.1266 16.415 97.9216 18.0639 97.8265 19.4908ZM105.215 23.5496L108.735 24.596C107.942 27.2913 105.468 29.5427 101.632 29.5427C97.3508 29.5427 93.5774 26.4669 93.5774 21.2031C93.5774 16.2247 97.2557 12.9903 101.251 12.9903C106.071 12.9903 108.957 16.0662 108.957 21.0763C108.957 21.6787 108.893 22.3129 108.893 22.3764H97.7313C97.8265 24.4375 99.5705 25.9278 101.663 25.9278C103.629 25.9278 104.707 24.9448 105.215 23.5496Z" fill="white"/>
<path d="M88.8181 8.80468V13.466H91.9574V17.2077H88.8181V23.7399C88.8181 25.1034 89.4523 25.5473 90.6573 25.5473C91.1646 25.5473 91.7354 25.4839 91.9574 25.4205V28.9085C91.5768 29.0671 90.8158 29.289 89.5791 29.289C86.535 29.289 84.6324 27.4816 84.6324 24.4692V17.2077H81.8103V13.466H82.603C84.2519 13.466 85.013 12.3879 85.013 10.9926V8.80468H88.8181Z" fill="white"/>
<path d="M69.9513 20.0933V29.0671H65.7339V13.466H69.8244V15.4003C70.7757 13.7831 72.6466 13.0538 74.3272 13.0538C78.1957 13.0538 79.9715 15.8125 79.9715 19.2371V29.0671H75.7541V19.9664C75.7541 18.2224 74.8979 16.8589 72.8685 16.8589C71.0294 16.8589 69.9513 18.2858 69.9513 20.0933Z" fill="white"/>
<path d="M51.917 19.4908H58.8931C58.8297 17.937 57.815 16.415 55.4051 16.415C53.2171 16.415 52.0122 18.0639 51.917 19.4908ZM59.3054 23.5496L62.8251 24.596C62.0324 27.2913 59.559 29.5427 55.7222 29.5427C51.4414 29.5427 47.668 26.4669 47.668 21.2031C47.668 16.2247 51.3463 12.9903 55.3417 12.9903C60.1615 12.9903 63.0471 16.0662 63.0471 21.0763C63.0471 21.6787 62.9837 22.3129 62.9837 22.3764H51.8219C51.917 24.4375 53.6611 25.9278 55.7539 25.9278C57.7199 25.9278 58.798 24.9448 59.3054 23.5496Z" fill="white"/>
<g clip-path="url(#clip0_2421_8983)">
<path fill-rule="evenodd" clip-rule="evenodd" d="M0.917304 25.1893C0.917304 26.0567 1.79588 26.648 2.59945 26.3213L13.337 21.9565C13.7976 21.7692 14.0988 21.3216 14.0988 20.8244L14.0988 15.8954C14.0988 15.3982 14.4 14.9506 14.8606 14.7633L25.6369 10.3827C26.0975 10.1955 26.3987 9.7479 26.3987 9.25072L26.3987 3.47187C26.3987 2.79699 25.8516 2.24989 25.1767 2.24989L14.4392 2.24989C13.7643 2.24989 13.2172 2.79699 13.2172 3.47187L13.2172 12.6016C13.2172 13.2765 12.6701 13.8236 11.9952 13.8236L2.13928 13.8236C1.4644 13.8236 0.917305 14.3707 0.917305 15.0456L0.917304 25.1893Z" fill="white"/>
<path fill-rule="evenodd" clip-rule="evenodd" d="M35.7226 10.6126C35.7226 9.74513 34.844 9.15388 34.0404 9.48054L23.3029 13.8454C22.8423 14.0326 22.5411 14.4802 22.5411 14.9774V19.9065C22.5411 20.4037 22.2399 20.8513 21.7793 21.0385L11.003 25.4191C10.5424 25.6063 10.2412 26.0539 10.2412 26.5511V32.33C10.2412 33.0048 10.7883 33.5519 11.4632 33.5519H22.2007C22.8756 33.5519 23.4227 33.0048 23.4227 32.33V23.2002C23.4227 22.5253 23.9698 21.9782 24.6447 21.9782H34.5006C35.1755 21.9782 35.7226 21.4311 35.7226 20.7563V10.6126Z" fill="white"/>
</g>
<defs>
<clipPath id="clip0_2421_8983">
<rect width="36.1136" height="36.1136" fill="white" transform="translate(0.263184 0.824005)"/>
</clipPath>
</defs>
</svg>
