<svg width="161" height="37" viewBox="0 0 161 37" fill="none" xmlns="http://www.w3.org/2000/svg">
<path d="M151.209 11.2408C155.548 11.2408 159.111 14.965 159.111 19.7902C159.111 24.6154 155.548 28.3396 151.209 28.3396C148.845 28.3396 147.129 27.4652 145.963 25.9756V34.363H141.785V11.6942H145.963V13.6049C147.129 12.1152 148.845 11.2408 151.209 11.2408ZM150.432 24.3564C153.022 24.3564 154.933 22.5105 154.933 19.7902C154.933 17.07 153.022 15.2241 150.432 15.2241C147.873 15.2241 145.963 17.07 145.963 19.7902C145.963 22.5105 147.873 24.3564 150.432 24.3564Z" fill="white"/>
<path d="M133.781 11.6942H137.959V27.8862H133.781V26.0727C132.81 27.53 131.126 28.3396 128.956 28.3396C125.524 28.3396 122.836 25.9432 122.836 21.6361V11.6942H127.013V21.118C127.013 23.3201 128.341 24.4535 130.219 24.4535C132.259 24.4535 133.781 23.2553 133.781 20.4379V11.6942Z" fill="white"/>
<path d="M119.896 15.7098H116.237V22.4457C116.237 24.1944 117.5 24.2268 119.896 24.0973V27.8862C114.035 28.5339 112.059 26.8176 112.059 22.4457V15.7098H109.242V11.6942H112.059V8.42344L116.237 7.16046V11.6942H119.896V15.7098Z" fill="white"/>
<path d="M102.826 14.4792C103.668 12.2771 105.708 11.3704 107.749 11.3704V16.0337C105.579 15.7746 102.826 16.7461 102.826 20.1464V27.8862H98.6487V11.6942H102.826V14.4792Z" fill="white"/>
<path d="M90.6828 11.6942H94.8604V27.8862H90.6828V25.9756C89.517 27.4328 87.7683 28.3396 85.4042 28.3396C81.0972 28.3396 77.5349 24.6154 77.5349 19.7902C77.5349 14.965 81.0972 11.2408 85.4042 11.2408C87.7683 11.2408 89.517 12.1476 90.6828 13.6049V11.6942ZM86.1814 24.3564C88.7722 24.3564 90.6828 22.5105 90.6828 19.7902C90.6828 17.07 88.7722 15.2241 86.1814 15.2241C83.6231 15.2241 81.7124 17.07 81.7124 19.7902C81.7124 22.5105 83.6231 24.3564 86.1814 24.3564Z" fill="white"/>
<path d="M75.9375 15.7098H72.2781V22.4457C72.2781 24.1944 73.5411 24.2268 75.9375 24.0973V27.8862C70.076 28.5339 68.1006 26.8176 68.1006 22.4457V15.7098H65.2832V11.6942H68.1006V8.42344L72.2781 7.16046V11.6942H75.9375V15.7098Z" fill="white"/>
<path d="M56.1083 16.2927C56.1083 18.6892 64.4634 17.1995 64.4634 23.1582C64.4634 26.6556 61.4193 28.3396 57.9542 28.3396C54.7158 28.3396 52.3194 26.9795 51.1536 24.4859L54.7806 22.4457C55.2339 23.7735 56.335 24.5507 57.9542 24.5507C59.2819 24.5507 60.1887 24.0973 60.1887 23.1582C60.1887 20.7941 51.8336 22.0895 51.8336 16.3899C51.8336 13.0867 54.651 11.2408 57.9866 11.2408C60.6097 11.2408 62.8766 12.4391 64.1395 14.6735L60.5773 16.6166C60.0915 15.5803 59.1848 14.965 57.9866 14.965C56.9503 14.965 56.1083 15.4184 56.1083 16.2927Z" fill="white"/>
<path d="M12.5344 21.441L5.21822 28.8322C4.20167 29.8592 2.5402 29.8519 1.53273 28.816C0.547059 27.8026 0.559818 26.1848 1.56135 25.1871L11.3703 15.415C12.4325 14.3569 14.1498 14.3551 15.214 15.4112L19.8547 20.0159L27.6405 12.1283H22.3482C20.9711 12.1283 19.8547 11.012 19.8547 9.63485C19.8547 8.25774 20.9711 7.14137 22.3482 7.14137H33.6164C35.1218 7.14137 36.3422 8.36176 36.3422 9.86718V21.0336C36.3422 22.4669 35.1803 23.6288 33.7469 23.6288C32.3136 23.6288 31.1517 22.4669 31.1517 21.0336V15.7413L22.1224 24.73C20.862 25.9847 18.83 26.0025 17.5479 24.77L14.0649 21.422C13.6352 21.009 12.9536 21.0175 12.5344 21.441Z" fill="white"/>
</svg>
